<svg xmlns="http://www.w3.org/2000/svg" width="57.617" height="72.779" viewBox="0 0 57.617 72.779">
  <g id="Group_25" data-name="Group 25" transform="translate(0 0)">
    <path id="Path_7" data-name="Path 7" d="M244.906,260.115a5.083,5.083,0,0,0-3.932-3.821,20.07,20.07,0,0,0-3.014-.249q-10.168-.03-20.332-.01c-.629,0-1.263,0-1.893.056-3.329.284-5.2,2.192-5.409,5.516-.046.756-.03,1.517-.03,2.273v56.941c0,.756-.02,1.517.025,2.273.213,3.5,2.162,5.45,5.668,5.678.67.041,1.345.025,2.019.025q9.719,0,19.444.005a22.664,22.664,0,0,0,3.268-.223,5.058,5.058,0,0,0,4.181-3.861,12.894,12.894,0,0,0,.269-2.76q-.008-29.539,0-59.088A12.876,12.876,0,0,0,244.906,260.115Zm-14.786-3.258c0,.066-.005.132-.005.2h-4.831c0-.066,0-.132-.005-.2Zm-6.688.8c.264.051.523.172.528.543a.528.528,0,0,1-.5.6.57.57,0,0,1-.655-.6C222.8,257.862,223.057,257.69,223.432,257.654Zm20.022,66.43a3.4,3.4,0,0,1-3.1,3.009,14.687,14.687,0,0,1-2.263.183q-10.229.023-20.464.005c-.589,0-1.182.015-1.766-.036-2.527-.223-3.79-1.477-4.014-4.009-.066-.751-.041-1.512-.041-2.273V292.417q0-14.522.005-29.054a15.083,15.083,0,0,1,.081-2.141,3.71,3.71,0,0,1,3.714-3.587c1.674-.132,3.369-.046,5.054-.091.624-.015.746.32.822.847a1.879,1.879,0,0,0,2.126,1.7q4.1-.008,8.21,0a1.885,1.885,0,0,0,2.156-1.806c.051-.523.264-.756.792-.741a38.473,38.473,0,0,1,5.668.2,3.425,3.425,0,0,1,2.984,2.831,10.77,10.77,0,0,1,.218,2.131q.015,29.683.005,59.367A11.086,11.086,0,0,1,243.455,324.084Z" transform="translate(-187.553 -256.031)" fill="#1d1d1f"/>
    <path id="Path_8" data-name="Path 8" d="M186.248,333.126c-3.242.1-6.485.046-9.727.03-2.06-.01-4.13.046-6.18-.122-2.156-.183-3.1-1.268-3.3-3.43a15.048,15.048,0,0,1-.041-1.512q-.008-26.837,0-53.674a12.555,12.555,0,0,1,.056-1.512,3.376,3.376,0,0,1,3.537-3.364c1.558-.091,3.115-.035,4.673-.056.472-.005.746.1.863.665.315,1.563.71,1.852,2.3,1.857,1.725.01,3.45.005,5.176.005,3.222,0,3.2,0,3.131-3.237-.015-.7-.249-.817-.868-.817-4.927.025-9.849-.025-14.776.041-3.689.046-5.587,1.974-5.592,5.683q-.038,27.659-.005,55.313a6.593,6.593,0,0,0,.66,3.05c1.126,2.228,3.192,2.593,5.343,2.613,5.85.051,11.706.015,17.673.015A2.716,2.716,0,0,0,186.248,333.126Zm-1.74-64.436c.005.076.005.152.01.228h-4.729c-.005-.076-.005-.152-.005-.228Zm-6.693,1.05c.4-.015.6.249.573.65-.02.365-.294.467-.589.538-.3-.076-.589-.2-.609-.548A.585.585,0,0,1,177.814,269.741Z" transform="translate(-165.479 -261.907)" fill="#1d1d1f"/>
  </g>
</svg>
