<svg xmlns="http://www.w3.org/2000/svg" width="62.631" height="79.113" viewBox="0 0 62.631 79.113">
  <g id="Group_22" data-name="Group 22" transform="translate(0)">
    <path id="Path_7" data-name="Path 7" d="M247.918,260.471a5.525,5.525,0,0,0-4.275-4.153,21.817,21.817,0,0,0-3.276-.27q-11.053-.033-22.1-.011c-.684,0-1.373,0-2.057.061-3.618.309-5.648,2.383-5.88,6-.05.822-.033,1.649-.033,2.471v61.9c0,.822-.022,1.649.028,2.471.232,3.806,2.35,5.924,6.161,6.172.728.044,1.462.028,2.2.028q10.565,0,21.136.005a24.639,24.639,0,0,0,3.552-.243,5.5,5.5,0,0,0,4.545-4.2,14.016,14.016,0,0,0,.292-3q-.008-32.109,0-64.23A14,14,0,0,0,247.918,260.471Zm-16.073-3.541c0,.072-.005.143-.005.215h-5.251c0-.072,0-.143-.005-.215Zm-7.27.866c.287.055.568.188.574.59a.574.574,0,0,1-.546.656.62.62,0,0,1-.712-.656C223.887,258.022,224.168,257.834,224.576,257.8Zm21.765,72.211a3.7,3.7,0,0,1-3.365,3.271,15.968,15.968,0,0,1-2.46.2q-11.12.025-22.245.005c-.64,0-1.285.017-1.919-.039-2.747-.243-4.12-1.605-4.363-4.357-.072-.816-.044-1.644-.044-2.471V295.583q0-15.786.006-31.583a16.4,16.4,0,0,1,.088-2.328,4.033,4.033,0,0,1,4.037-3.9c1.82-.143,3.662-.05,5.494-.1.678-.017.811.348.894.921a2.043,2.043,0,0,0,2.311,1.853q4.459-.008,8.924,0a2.049,2.049,0,0,0,2.344-1.964c.055-.568.287-.822.86-.805a41.82,41.82,0,0,1,6.161.221,3.723,3.723,0,0,1,3.243,3.078,11.708,11.708,0,0,1,.237,2.317q.017,32.267.006,64.533A12.049,12.049,0,0,1,246.341,330.007Z" transform="translate(-185.574 -256.031)" fill="#1d1d1f"/>
    <path id="Path_8" data-name="Path 8" d="M188.055,338.8c-3.524.1-7.049.05-10.574.033-2.239-.011-4.49.05-6.718-.132-2.344-.2-3.37-1.379-3.591-3.729a16.354,16.354,0,0,1-.044-1.644q-.008-29.172,0-58.345a13.648,13.648,0,0,1,.061-1.644c.287-2.339,1.489-3.525,3.844-3.657,1.693-.1,3.387-.039,5.08-.061.513-.006.811.11.938.723.342,1.7.772,2.013,2.5,2.019,1.875.011,3.751.005,5.626.005,3.5,0,3.475,0,3.4-3.519-.017-.761-.27-.888-.943-.888-5.356.028-10.706-.028-16.062.044-4.01.05-6.073,2.146-6.078,6.178q-.041,30.066-.006,60.126a7.166,7.166,0,0,0,.717,3.315c1.224,2.421,3.469,2.818,5.808,2.841,6.36.055,12.725.017,19.211.017A2.953,2.953,0,0,0,188.055,338.8Zm-1.892-70.043c.006.083.006.165.011.248h-5.141c-.006-.083-.006-.165-.006-.248Zm-7.275,1.142c.436-.017.651.27.623.706-.022.4-.32.507-.64.585-.331-.083-.64-.221-.662-.6A.636.636,0,0,1,178.888,269.9Z" transform="translate(-165.479 -261.38)" fill="#1d1d1f"/>
  </g>
</svg>
