<svg xmlns="http://www.w3.org/2000/svg" width="37.47" height="32.128" viewBox="0 0 37.47 32.128">
  <g id="Group_52" data-name="Group 52" transform="translate(-668.993 -592.147)">
    <path id="Path_51" data-name="Path 51" d="M699.14,622.694v-5.283c0-2.585,0-5.169,0-7.754,0-.384.1-.766-.391-1.04-4.236-2.384-8.456-4.8-12.9-7.328,0,1.97-.012,3.75.008,5.531.006.517-.054.828-.7.781-.456-.033-.651-.122-.643-.621.027-1.772-.03-3.546.033-5.316A3.072,3.072,0,0,1,686.272,599q5.977-3.245,11.976-6.452a3.252,3.252,0,0,1,3.189.03q5.948,3.183,11.875,6.407a3.273,3.273,0,0,1,1.784,3.087q-.011,6.148,0,12.3a3.28,3.28,0,0,1-1.79,3.086q-5.927,3.222-11.878,6.4a3.4,3.4,0,0,1-3.385-.068c-3.828-2.067-7.65-4.144-11.489-6.19a3.509,3.509,0,0,1-2.041-3.5c.024-.553.016-1.108,0-1.661-.014-.5-.074-.912.7-.9.707.014.711.4.627.839-.492,2.589.766,3.951,3.025,5.006,3.135,1.463,6.123,3.242,9.177,4.879A2.013,2.013,0,0,0,699.14,622.694Z" transform="translate(-8.634)" fill="#1d1d1f"/>
    <path id="Path_52" data-name="Path 52" d="M671.414,627.391c.628.6,1.266,1.2,1.88,1.818.3.3.522.65.114,1.05s-.767.152-1.059-.131c-1.033-1-2.042-2.029-3.057-3.049a.733.733,0,0,1-.024-1.161c1.014-1.021,2.026-2.044,3.053-3.052.307-.3.676-.495,1.068-.123.411.391.176.746-.125,1.046-.615.611-1.252,1.2-1.88,1.795l.147.243c3.009,0,6.018-.014,9.027.012.61.005,1.615-.3,1.634.607.021,1.026-1.027.693-1.66.7-2.987.03-5.976.013-8.963.013Z" transform="translate(0 -16.915)" fill="#1e1e20"/>
    <path id="Path_53" data-name="Path 53" d="M720.508,634.556c0-4.636,0-9.059,0-13.481,0-.3.01-.553.337-.739,4.255-2.406,8.5-4.828,12.676-7.2.32.094.272.272.272.4.008,4.2,0,8.406.02,12.609a1.936,1.936,0,0,1-1.087,1.793C728.731,630.13,724.714,632.283,720.508,634.556Z" transform="translate(-28.672 -11.681)" fill="#fefefe"/>
    <path id="Path_54" data-name="Path 54" d="M708.447,610.526c-1.905,1.081-3.636,2.056-5.357,3.047a.813.813,0,0,1-.917.038c-4.146-2.367-8.3-4.722-12.649-7.192,2.065-1.109,3.961-2.121,5.846-3.149a.553.553,0,0,1,.608.072C700.091,605.708,704.2,608.078,708.447,610.526Z" transform="translate(-11.427 -6.154)" fill="#fefefe"/>
    <path id="Path_55" data-name="Path 55" d="M725.234,601.953c-1.993,1.132-3.782,2.134-5.553,3.167a.688.688,0,0,1-.8-.083q-5.976-3.444-11.949-6.893c-.088-.051-.14-.164-.243-.289,1.5-.813,2.983-1.629,4.478-2.414a2.057,2.057,0,0,1,2.009.019C717.126,597.582,721.072,599.711,725.234,601.953Z" transform="translate(-20.981 -1.693)" fill="#fefefe"/>
  </g>
</svg>
